# xmcd
# 
# Track frame offsets:
#     150
#     21331
#     33677
#     47164
#     62669
#     82842
#     100466
#     120622
#     137211
#     154452
#     181002
#     215116
# 
# Disc length: 3097
# 
# Revision: 2
# Processed by: cddbd v1.5.2PL0 Copyright (c) Steve Scherf et al.
# Submitted via: fre:ac v1.0.31
# 
DISCID=ac0c170c
DTITLE=Michael Martin Murphey - Buckaroo Blue Grass II - Riding Song
DYEAR=2010
DGENRE=Country
TTITLE0=Blue Sky Riding Song
TTITLE1=Running Gun
TTITLE2=Backslider's Wine
TTITLE3=Rollin' Nowhere
TTITLE4=Southwestern Pilgrimage
TTITLE5=Medicine Man
TTITLE6=Cosmic Cowboy
TTITLE7=Desert Rat
TTITLE8=Running Blood
TTITLE9=Wildfire
TTITLE10=Renegade
TTITLE11=Swans Against the Sun
EXTD=
EXTT0=
EXTT1=
EXTT2=
EXTT3=
EXTT4=
EXTT5=
EXTT6=
EXTT7=
EXTT8=
EXTT9=
EXTT10=
EXTT11=
PLAYORDER=
